<svg xmlns="http://www.w3.org/2000/svg" viewBox="0 0 1054.16 996.89"><defs><style>.cls-1{isolation:isolate;}.cls-2{fill:#cf8548;}.cls-3{fill:#b27042;}.cls-4{fill:#dedede;}.cls-49,.cls-5{opacity:0.13;}.cls-6{fill:#212121;}.cls-7{fill:#1a425c;}.cls-8{fill:#133649;}.cls-9{fill:#235068;}.cls-10{fill:#ededed;}.cls-11{fill:#00a2de;}.cls-12{fill:#cf905b;}.cls-13{fill:#d0864a;}.cls-14{fill:#1d425d;}.cls-15{fill:#13374a;}.cls-16{fill:#481f29;}.cls-17{fill:#e9443a;}.cls-18{fill:#b71f1e;}.cls-19{fill:#202121;}.cls-20{fill:#dba175;}.cls-21{fill:#bc7d5b;}.cls-22{fill:#582331;}.cls-23{fill:#fcc00c;}.cls-24{fill:#939393;}.cls-25{fill:#fff;}.cls-26{fill:#616160;}.cls-27{fill:#abb2b7;}.cls-28,.cls-38{fill:none;}.cls-28{stroke:#fff;stroke-miterlimit:10;stroke-width:2.21px;}.cls-29{fill:#d1925c;}.cls-30{fill:#44a346;}.cls-31{fill:#60b565;}.cls-32{fill:#ce8549;}.cls-33{fill:#d18c53;}.cls-34{fill:#242323;}.cls-35{fill:#b27143;}.cls-36{fill:#245069;}.cls-37{fill:#b37344;}.cls-39{fill:#60b465;}.cls-40{fill:#88c685;}.cls-41{fill:#e0750a;}.cls-42{fill:#f0850c;}.cls-43{fill:#0275af;}.cls-44{fill:#008ecf;}.cls-45{fill:#1a3d82;}.cls-46{fill:#2a4b9b;}.cls-47{fill:#4d4d4f;}.cls-48{fill:#68686b;}.cls-49{mix-blend-mode:multiply;}.cls-50{fill:#ffc107;}.cls-51{fill:#9e9e9e;}.cls-52{fill:#65b262;}.cls-53{fill:#bdbdbd;}.cls-54{fill:#e0e0e0;}.cls-55{fill:#fcfcfd;}.cls-56{fill:#dededf;}</style></defs><g class="cls-1"><g id="Livello_2" data-name="Livello 2"><g id="Livello_1-2" data-name="Livello 1"><path class="cls-2" d="M457.63,435.13c-2.3-1.7-4.08-5.41-7.85-4.85s-14.08,3.82-16.55-12.82,5.08-14.28,12.61-15.4,6.47-2.82,6-6.22-1.79-5.25-1.41-9.69,5.69-7.95,6.09-5.28,5.27,18,7.62,22.95,1.72,9.92.07,12.15,2.72,6.39,2.72,6.39Z"/><path class="cls-3" d="M457.63,435.13l6.81-9.4c-3.2-3.51-7.34-7.64-9.86-8.5-4.3-1.46-8.28-13.73-4.59-16.12a20.87,20.87,0,0,1-4.15.95c-7.53,1.12-15.07-1.24-12.61,15.4s12.79,13.38,16.55,12.82S455.33,433.43,457.63,435.13Z"/><path class="cls-4" d="M466.33,421.16l74.46,60.73s3.66,55.47-6.81,40.44c-.92-.6-79.49-89.07-79.49-89.07C452.05,426.78,461.28,419,466.33,421.16Z"/><path class="cls-5" d="M589.34,919.66c0,3.44,17.81,6.23,39.78,6.23s39.78-2.79,39.78-6.23-17.81-6.23-39.78-6.23S589.34,916.22,589.34,919.66Z"/><path class="cls-5" d="M503.86,918.34c0,3.45,13.55,6.24,30.27,6.24s30.27-2.79,30.27-6.24-13.55-6.22-30.27-6.22S503.86,914.9,503.86,918.34Z"/><path class="cls-6" d="M503.43,919.31l30.44-.54c5.27-3.23,4.19-12.51-.67-14.37l-10.56-.92s-16.66,6.19-18.25,7.83S503.43,919.31,503.43,919.31Z"/><path class="cls-6" d="M589.37,920.08l31.62-.84c4.85-3.81,3-14-2.09-15.28l-10.6.33s-16.71,7.82-18.09,9.64C588.43,915.84,589.35,918.76,589.37,920.08Z"/><path class="cls-7" d="M625.29,901.4l7-139.15c.15-6.31-3.31,30.61,11.05-138.08.39-19.86-125.9-69.26-132.45-50.51,0,0-24.41,160.29-26.6,177.49a13.06,13.06,0,0,0-.15,1.48C483.84,756.4,517,903,517,903c-.44,7.65,19.59,6.59,20-1.06L533.26,749.8l29.45-75,13.69,1.76s6.75,83.18,6.72,84.23l19.54,142.13C602.6,910.59,625.23,909.06,625.29,901.4Z"/><path class="cls-8" d="M625.29,901.4,633.23,762c0-1.24,11.78-142.28,11.78-142.28-2.1.35-24.37-4-35-4.28l6.75,144.09c0,1-.12,5.43-.15,6.67l-7,139.15a4,4,0,0,1-.84,2.37C615.47,908.82,625.25,906.44,625.29,901.4Z"/><path class="cls-9" d="M500.94,638.38c-2.47,16.23-14.28,97.81-16.5,112.78-.23,1.53,2.63,2.36,3.11,2.41C521.72,756.81,511.62,650.54,500.94,638.38Z"/><path class="cls-8" d="M518,785.15c.78-18.82,7-25.51,15.09-29.5l5.32,146.4c-.19,3.2-3.81,5.24-7.92,6Z"/><path class="cls-10" d="M501.66,608.4c48,7.61,144.43,19.93,146.05,18.53.06-70.3-.51-189-.61-194.11-1.34-17.5-13.63-32.21-23.48-35.74a113.86,113.86,0,0,0-22.54-6.39c-41.75-10-73.3,16.55-81.17,68.87Z"/><path class="cls-4" d="M647.36,431.77c-.86-16.56-9.35-25.11-18.83-32.25-14.87-10.07-63.78,3.91-40.39,83.15,11.9,27.76-6.37,76.65-7.62,137,0,0,65.81,7.16,67.19,7.26C651.08,557.84,649,437.85,647.36,431.77Z"/><path class="cls-6" d="M595.33,361.86l-.66-14.21a18.67,18.67,0,0,0-6.14-12.76,18.08,18.08,0,0,0-13.25-4.65l-10.82.59a8,8,0,0,0-5.68,2.61,8.6,8.6,0,0,0-2.06,6.14S580,364.27,595.33,361.86Z"/><path class="cls-2" d="M551.57,359.36c.79-4.64,3.65-13.59,5.09-19.78l15.68-.84a4.48,4.48,0,0,1,3.3,1,4.13,4.13,0,0,1,1.53,2.92l.81,14.94,5.53-.54-.34-6.31c-.1-1.76,1.83-3.22,3.6-3.31h.08a3.28,3.28,0,0,1,3.52,2.93l.69,10.24,4.22-.26,3,29.92c-7.24,9-20.63,11.93-28.41,3.92l-1.41-14.27-7.51.43a4.3,4.3,0,0,1-3-1.16c-.87-.77-1.36-4.83-1.43-5.91-.09-3.06-.25-6.16-.41-9.28C556.11,362.84,550.32,362.91,551.57,359.36Z"/><path class="cls-3" d="M575.73,339.55a4.45,4.45,0,0,0-3.29-1l-15.69.85c-.15.68-1.08,4.11-1.26,4.86l14.29-1a4.45,4.45,0,0,1,3.29,1,4.18,4.18,0,0,1,1.54,2.93l.56,5.62,0,10.36c1.32.24,3.61-2.17,2.93-4.56l-.46-8.6-.41-7.49A4.18,4.18,0,0,0,575.73,339.55Z"/><path class="cls-3" d="M591.05,360.49l-.11.9c-.36,1.3-1.67,1.92-3.26,2l-.48,0c-1.92.1-3.39-.94-3.5-2.86l.41,7.05-15.51,14,.38,3.8c.66,0,8.72.07,8.72.07,8.72-.3,14.41-6.87,14-13.11Z"/><path class="cls-6" d="M556.44,372.94l6-.32a2.5,2.5,0,1,0-.27-5l-6,.32-.15-3.33,3.09-.16,5.55-.3,9.54-.51A4.39,4.39,0,0,0,577,362a4.77,4.77,0,0,0,1-3.27l-.06-3,5.45-.19.81,15.07c.12,2.39-.34,5.27-2.06,7.2s-3.75,3.4-6.14,3.53l-14.73.79c-4.29-.32-4.54-4.49-4.75-6.49Z"/><path class="cls-11" d="M566,400.2a3.37,3.37,0,0,0,2.24,4.2l4.27,1.35a3.36,3.36,0,0,0,4.25-2.13l1.13-3.54a3.36,3.36,0,0,0-2.25-4.2l-4.26-1.36a3.37,3.37,0,0,0-4.26,2.14Z"/><path class="cls-11" d="M535.37,530.08l7.13,16.56,15.94-16.27c-2.32-39.53,8.48-92,14.74-127.17l-6.59-.62C556.2,414.39,535.63,489.33,535.37,530.08Z"/><path class="cls-12" d="M624.7,559.35c-4.71-1.56-6.89-1.41-11.42.44,3.75,1.17,4.41,2.31,5.69,4.75,2,8-13.2,18.23-18.44,18.55-1.14,3.21,11.5,14.66,23,15.14,8.9-2.55,13.3-19,21.25-29.83l-12.54-15.83C630,554.45,627.49,556.79,624.7,559.35Z"/><path class="cls-10" d="M725.9,506.76c5.54-7.5,5.56-17.7,0-22.77l-86.61-79.06c-9.66-8.88-31.13-5.29-39.29,5.77-9.47,11.87-4.86,28.58,6.48,37.69L703.79,514A20,20,0,0,0,725.9,506.76Z"/><path class="cls-10" d="M645.56,574.38l77.6-63.09c19.29-28.74-15-37.31-31.69-22.75L627,555.08C625.61,558.85,644,578.27,645.56,574.38Z"/><path class="cls-12" d="M613.28,559.79c-4.77,1.59-15.66,16.23-12.72,24.39s23.63-13.65,23.63-13.65l-5.54-9.94Z"/><path class="cls-2" d="M556.21,368l11.56-.6s-.58,5-5.33,5.27S556.21,368,556.21,368Z"/><path class="cls-13" d="M200.53,520.17c17-6.44,34-2.51,37.66,5.6A188.74,188.74,0,0,0,206.12,532c-3.08.94-5.59-11.86-5.59-11.86"/><path class="cls-5" d="M87.47,938.33c-.17,2.56,10.81,5.17,24.51,5.83s25-.9,25.12-3.46-10.8-5.17-24.51-5.83-25,.9-25.12,3.46"/><path class="cls-5" d="M24.4,939c-.17,2.57,10.8,5.18,24.51,5.83s25-.9,25.12-3.46-10.81-5.17-24.51-5.83-25,.9-25.12,3.46"/><path class="cls-14" d="M31,660.37H83.79L80.46,781.76c.07,1.46-.36,6-.38,7L59.84,934.61c-.48,8.19-14.2,4.86-13.72-3.32Z"/><path class="cls-14" d="M139.29,660.37l.69,115c.09,1.46-.25,6.05-.26,7L121.59,935c-.33,8.2-14.11,5.12-13.78-3.07L85.89,660.37Z"/><path class="cls-15" d="M31,660.37H81.2C62,672.49,46.07,688.89,48.1,727L59.54,931.29a6.68,6.68,0,0,0,.39,2.71l-.09.61c-.48,8.19-14.2,4.86-13.72-3.32Z"/><path class="cls-15" d="M134.43,660.37c-13.87,14.39-33.88,19.88-30.57,56.31L121.23,931.9a6.82,6.82,0,0,0,.41,2.63l0,.44c-.33,8.2-14.11,5.12-13.78-3.07L85.89,660.37Z"/><path class="cls-16" d="M106.2,387.05a32.24,32.24,0,0,0,3.2,14.18c9.81,16.78-.67,16.89,4.35,26.1-14.23-.8-30.22-17.39-16.71-41.63,2.33-1,7.23.69,9.16,1.35"/><path class="cls-17" d="M158,666.36c-45.11,12.36-91.91,15-141.49,2,5-82.57,13.07-165.71,32.57-245.35.39-6.83,8.21-17.33,14.94-18.58l35.11-.27c20.22,23.82,41.79,39.7,43.52,72.83Z"/><path class="cls-18" d="M76.37,416.72c41.64,14.47,51.76,67,46,115.42-8.16,50.3,12.09,78.75,4.42,141.11-19.71,5.73-84.95,5.33-110.28-4.93,5-82.57,13.06-165.71,32.57-245.35.39-6.83,14.42-7.22,27.32-6.25"/><path class="cls-19" d="M46.1,940.58c-5.27-3-4.29-11.36.43-12.12H60.17s11.45,6.61,12.63,8.22c1.14,1.27,1,1.63.83,3.9Z"/><path class="cls-19" d="M108.51,940.58c-5.28-3-4.3-11.36.42-12.12h13.64s11.45,6.61,12.63,8.22c1.14,1.27,1,1.63.83,3.9Z"/><path class="cls-17" d="M200.58,517.54l-84.34-2.65L84.09,433.36c-3.89-10.24-15-16.46-24.7-13.9s-14.51,12.93-10.62,23.16l33.16,79.59c5.21,9.35,14.14,19.57,22.73,21.06,2.1,1.49,94.82-9.13,94.82-9.13,5.77-1,6.56-13.51,1.1-16.6"/><path class="cls-20" d="M114.35,374c.94-.53,3.77-1.06,3.65-3.85a34.21,34.21,0,0,1-3.45-11.77c-.16-7.33-3-10.32-3.56-11.66-27.88,5.09-37.43,36.81-33.92,58.06,7.84,5.44,17.53,5.74,23.49,2l-1.63-20,8.45,2.22c5,.14,6.69-2.63,6.67-5.93Z"/><path class="cls-21" d="M99.82,386.69c-6.82-1.4-12.22-4.59-11.68-16.17-4.53,1.37-5.55,5.74-5.25,12.41-.83,1.94-9.19,20-4.2,20.51,1.86,3.52,10.23-1.25,11.41-10.89,1.37-2.56,4-5,9.72-5.86"/><path class="cls-22" d="M111.53,347.41c-2.39,9.36-4.88,15.59-14.65,18-7.27,1.42-11.11,6.17-10.67,15.13.19,9.86,1.12,17.47-6.85,23.46-19.88,7.43,3.81,27.74-4.91,40.87-10.38,24.79-66.35,12.9-45.31-10.76,5.29-3.23,13-9.8,10.36-20.64a13.87,13.87,0,0,1,8.42-15.95c4.78-3,7.57-5.16,7.15-14.76.12-3.42-.9-9,7.56-12.9,6.19-3.91,8.05-8.4,8-15.12,1.44-18.65,30.57-25.87,40.89-7.3"/><path class="cls-16" d="M58.5,432.69c8.72-13.13-8.42-30,11.46-37.44,8.3-3.77,11.88-7.31,11.55-18.1-.44-8.95,3.4-13.71,10.67-15.12,9.78-2.39,12.26-8.62,14.65-18A21.33,21.33,0,0,0,103,339a20.58,20.58,0,0,1,8.58,8.42c-2.39,9.36-4.88,15.59-14.65,18-7.27,1.42-11.11,6.17-10.67,15.13.28,10,2,18.58-6.85,23.46-19.21,7.47,5.46,29.77-4.75,42.81-10.28,17.39-40.87,19.58-47.86,3.35,15.51,2.1,25.46-10.36,31.75-17.44"/><path class="cls-23" d="M82.07,376a4.5,4.5,0,1,0,4.5-4.5,4.5,4.5,0,0,0-4.5,4.5"/><polygon class="cls-24" points="712.36 609.4 715.61 665.29 680.71 665.29 677.98 609.4 712.36 609.4"/><path class="cls-24" d="M598,497.5h176.1a5.75,5.75,0,0,1,5.75,5.76l5.61,114.46H597.88l-5.61-114.46A5.76,5.76,0,0,1,598,497.5Z"/><path class="cls-24" d="M785.42,616.4l.49,8.61a5.74,5.74,0,0,1-5.76,5.74H603.67a5.74,5.74,0,0,1-5.76-5.74l-.42-8.61Z"/><path class="cls-25" d="M700.38,620.32c1.26,2.66.4,5.71-1.92,6.81s-5.23-.17-6.49-2.83-.4-5.71,1.93-6.81S699.12,617.66,700.38,620.32Z"/><polygon class="cls-26" points="774.01 503.21 779.33 610.1 602.93 610.1 598.42 503.21 774.01 503.21"/><rect class="cls-24" x="680.73" y="662.37" width="67.47" height="5.12" rx="2.09"/><path class="cls-6" d="M292.55,954.73h-2.21v-5.88A39.43,39.43,0,0,0,251,909.47H174.83a39.43,39.43,0,0,0-39.39,39.38v5.88h-2.21v-5.88a41.64,41.64,0,0,1,41.6-41.59H251a41.64,41.64,0,0,1,41.59,41.59Z"/><path class="cls-6" d="M144.09,964.21a10.86,10.86,0,0,1-.15-21.72h.16A10.88,10.88,0,0,1,155,953.2h0a10.88,10.88,0,0,1-10.71,11Zm0-19.51H144a8.65,8.65,0,1,0,8.77,8.53h0A8.67,8.67,0,0,0,144.1,944.7Z"/><path class="cls-6" d="M281.68,964.21a10.86,10.86,0,0,1-.14-21.72h.15a10.87,10.87,0,0,1,10.86,10.71h0a10.88,10.88,0,0,1-10.71,11Zm0-19.51h-.12a8.65,8.65,0,1,0,8.77,8.53h0A8.67,8.67,0,0,0,281.69,944.7Z"/><path class="cls-6" d="M260.84,954.73h-2.21v-5.88a39.43,39.43,0,0,0-39.38-39.38H206.54a39.43,39.43,0,0,0-39.39,39.38v5.88h-2.21v-5.88a41.64,41.64,0,0,1,41.6-41.59h12.71a41.64,41.64,0,0,1,41.59,41.59Z"/><path class="cls-6" d="M175.8,964.21a10.86,10.86,0,0,1-.14-21.72h.15a10.88,10.88,0,0,1,10.86,10.71h0a10.88,10.88,0,0,1-10.71,11Zm0-19.51h-.12a8.66,8.66,0,0,0-5.92,14.85,8.76,8.76,0,0,0,6.16,2.45,8.67,8.67,0,0,0,8.53-8.77h0A8.67,8.67,0,0,0,175.81,944.7Z"/><path class="cls-6" d="M250,964.21a10.86,10.86,0,0,1-.14-21.72H250a10.87,10.87,0,0,1,10.86,10.71h0a10.88,10.88,0,0,1-10.71,11Zm0-19.51h-.12a8.66,8.66,0,0,0-5.92,14.85A8.76,8.76,0,0,0,250.1,962a8.66,8.66,0,0,0,8.53-8.77h0A8.67,8.67,0,0,0,250,944.7Z"/><rect class="cls-6" x="211.79" y="776.67" width="2.21" height="132.09"/><path class="cls-4" d="M211.93,564.78h-75a26.91,26.91,0,0,0-26.47,31.82L142,766.47H257.37Z"/><path class="cls-27" d="M281.93,774.83c0,4.32-2.83,7.8-6.27,7.79l-136.23-.52c-3.44,0-6.22-3.53-6.2-7.85h0c0-4.31,2.83-7.8,6.28-7.78l136.23.51c3.44,0,6.21,3.53,6.19,7.85Z"/><path class="cls-28" d="M168.41,655.26a3.32,3.32,0,1,1-3.32-3.31A3.32,3.32,0,0,1,168.41,655.26Z"/><path class="cls-28" d="M175,695.05a3.32,3.32,0,1,1-3.32-3.31A3.32,3.32,0,0,1,175,695.05Z"/><path class="cls-5" d="M319.37,965.91c0,3.52-18.2,6.37-40.65,6.37s-40.66-2.85-40.66-6.37,18.2-6.37,40.66-6.37,40.65,2.85,40.65,6.37"/><path class="cls-5" d="M393.33,965.91c0,3.52-13.85,6.37-30.94,6.37s-30.94-2.85-30.94-6.37,13.85-6.37,30.94-6.37,30.94,2.85,30.94,6.37"/><path class="cls-19" d="M319.58,966.28l-33.83-.89c-5.19-4.08-3.16-15,2.25-16.35l14.4-.22s14.8,8.93,16.28,10.88c1.91,2,.92,5.17.9,6.58"/><path class="cls-29" d="M302.83,949.34c-2.05.53-5.84,5.14-14.4-.2l-10.05-42.66,22-4.29Z"/><path class="cls-19" d="M393.3,966.28l-33.82-.89c-5.19-4.08-3.16-15,2.24-16.35l14.41-.22s14.8,8.93,16.28,10.88c1.9,2,.92,5.17.89,6.58"/><path class="cls-29" d="M376.56,949.34c-2.06.53-5.84,5.14-14.4-.2L352.1,906.48l22-4.29Z"/><rect class="cls-25" x="189.31" y="633.15" width="1.19" height="132.43" transform="matrix(0.97, -0.26, 0.26, 0.97, -173.46, 72.35)"/><path class="cls-30" d="M376.43,643.62c4,6.35,1.54,15.15-5.55,19.65s-20.18,5.46-24.21-.89l-59.44-91.94c-7.58-12-4.34-27.59,7.24-34.94s27.11-3.62,34.7,8.34Z"/><path class="cls-29" d="M426,621.89l19.19-2.26a4.41,4.41,0,0,1,2.66.58c11.66,5.77,3.81,33.41-2.23,33.69-3.56.17-31.66,2.82-31.66,2.82l-7.2-17.63c1.85-.39,10.17-3.28,11.18-4.87,1.79-2.79,4.54-8.48,8.06-12.33"/><path class="cls-15" d="M377.78,928.7l-20.49-186c-3.54-15.76-5-20-15.34-27.15-11.68-5.36-28.28-18.34-43.24-24.52,6.53.2-88.66-8-137.06-1.63,3,25.07,112,75.81,152.37,94.73l41.54,146.11Z"/><path class="cls-14" d="M312.13,751.75c-.48-12.78-2.93-19-15-26.9l-94.16-35.42-42.49-2.14L155,717.82A41.52,41.52,0,0,0,162.37,754c8.27,10.73,18,16.73,30.61,16.73l63.18-.52,25.49,160.5h23.59s7.25-177.9,6.89-178.93"/><path class="cls-15" d="M185.83,762.68a41.48,41.48,0,0,1-7.35-36.15c2.63-20.85,18.42-30.28,46.93-28.64l-22.47-8.45-42.49-2.15-8.11,30.53A41.51,41.51,0,0,0,159.69,754,42.3,42.3,0,0,0,193,770.7h.89a43.85,43.85,0,0,1-8-8"/><path class="cls-31" d="M298.05,691.11l-138.18-2.6L196.45,545c1.48-6,4.9-8.82,10.16-12.94s11.49-3.31,17.69-3.31h68.87c15,0,29.8,4.17,38.81,17.6a44.76,44.76,0,0,1,4.41,42.82Z"/><polygon class="cls-32" points="279.99 653.7 309.03 650.2 329.94 667.6 275.34 667.6 279.99 653.7"/><path class="cls-30" d="M258.28,646.59c-5.6.06-32.59-8.28-34.84-15.24a15.84,15.84,0,0,1,2.41-15.91l25.52-46.89c7.38-11.39,4.06-28.54-7.28-35.5s-31.18-4-38.56,7.34L152.26,644.9c-3.92,6.05,106,1.69,106,1.69"/><polygon class="cls-19" points="70.69 951.94 135.29 675.5 132.99 674.89 68.39 951.32 70.69 951.94"/><polygon class="cls-19" points="2.28 996.89 85.78 674 83.5 673.33 0 996.22 2.28 996.89"/><polygon class="cls-33" points="287.86 483.88 287.87 483.86 287.86 483.84 287.86 483.88"/><path class="cls-34" d="M307.84,476.91c23.64-10.49-1.93-33.62-19.65-17.8-1.47,1.92-8,7.95-13.19,7.75-8.54-.63-16.44,5.1-13.84,15.72l7.19,19c17.6-.83,29.45-12.32,39.49-24.7"/><path class="cls-33" d="M313.26,496.27a47.54,47.54,0,0,1-5.4-19.86L294,475.88a4,4,0,0,0-3,1.24,4.27,4.27,0,0,0-1.19,3.21l-.52,13.45-20.81,7.48L267,528.69c8.48,7.23,20.52,6.54,27.56.22l.35-8.59c7.93.07,12.21-5.61,12.15-12.4l.26-6.13c0-1.75.48-2.49,2.26-2.86,2.5-.16,4.05-1,3.71-2.66"/><path class="cls-35" d="M268.19,505.17l22.95-8.66.52-13.45a4.39,4.39,0,0,1,1.21-3.24,4.08,4.08,0,0,1,3-1.26l12.21.47a25.69,25.69,0,0,1-.24-3.27l-13.83-.53a4,4,0,0,0-3,1.23,4.29,4.29,0,0,0-1.19,3.21l-.51,13.44-21.18,7.65Z"/><path class="cls-35" d="M289.74,502.44a3.66,3.66,0,0,1-2.43-1.2,3.2,3.2,0,0,1-.81-2.53l.26-4.65-6.47,2.46-.76,14.08c-.21,5.52,5.63,10.21,13.42,10.51s13.7-4,13.91-9.46l.32-8.54Z"/><path class="cls-33" d="M289.2,490.06a3.47,3.47,0,0,0-4.85-.6l-.23.17a3.23,3.23,0,0,0-1,4.58l3.65,5.86a3.23,3.23,0,0,0,4.64.73l.24-.16a3.46,3.46,0,0,0,1.21-4.73Z"/><path class="cls-33" d="M289.2,490.06a3.47,3.47,0,0,0-4.85-.6l-.23.17a3.23,3.23,0,0,0-1,4.58l3.65,5.86a3.23,3.23,0,0,0,4.64.73l.24-.16a3.46,3.46,0,0,0,1.21-4.73Z"/><path class="cls-36" d="M352.3,746.66c-1.7-10.48-2.83-15.92-6.2-20.63a13.76,13.76,0,0,0-7.65-1.68c-11.25,1-12.55,16.14-11,34.58s9.58,45.85,20.83,44.88c3.38-.28,6.08-3.06,8.16-7.29Z"/><path class="cls-36" d="M304.21,756.79c.24-9.17-.75-15-5.6-20.8a14.09,14.09,0,0,0-8.31-3.58c-11.26-.72-15.68,14.37-16.86,32.84-3.23,22.09,11.82,80.76,26.72,55.09,1.27-18.75,4.13-63.26,4-63.55"/><path class="cls-37" d="M319.83,663.74c-16.68,0-28.4-3.31-29.16-10.83L278.94,654,276,668.21H330.6l-6-4.77c-1.56,0-3.17.3-4.81.3"/><path class="cls-31" d="M279.48,651l-95.59-15.51,54.67-69.71c7.38-11.71,4.17-27-7.16-34.14s-26.51-3.46-33.89,8.24L139.45,644.18C133,656,139.63,669.8,158,667.65c1.06.29,120.31.34,120.31.34,12.32-1.52,13.1-13.51,1.2-17"/><path class="cls-30" d="M416.43,633.25l-48.38,2.2c-9.58,1.16-16.53,8.88-15.51,17.24s9.6,14.19,19.19,13l44.7-2.59Z"/><path class="cls-38" d="M112,754.63c-12.46,2.67-15.58,20.92-19.14,52.53L95.56,914.9l31.61-7.57c49-115.28.82-152.84-13.74-152.84a6.7,6.7,0,0,0-1.4.14"/><path class="cls-38" d="M12.75,762.2C24.55,782.9,22.1,786,22.1,786c-4.67-2.67-9.35-8-9.35-8-3.34,78.8,51,129.33,51,129.33l36.5,3.34c31.61-135.34-79.46-207.46-79.46-207.46,1.56,9.79-4.68,45.41-8,59"/><path class="cls-6" d="M314.35,511.27c-17.48-.12-28.69-14.22-28.77-14.36l1.57-1-.79.47.79-.47c.08.13,10.78,13.36,27.21,13.48h.33v1.84Z"/><path class="cls-39" d="M316.52,511.9h-1.65a1.54,1.54,0,0,1-1.52-1.54h0a1.54,1.54,0,0,1,1.54-1.52l1.65,0a1.51,1.51,0,0,1,1.51,1.53h0A1.52,1.52,0,0,1,316.52,511.9Z"/><rect class="cls-39" x="270.55" y="484.67" width="26.19" height="21.02" rx="9.9" transform="translate(-222.96 757.88) rotate(-87.6)"/><rect class="cls-40" x="278.41" y="488.55" width="10.47" height="13.05" rx="4.93" transform="translate(20.93 -11.42) rotate(2.39)"/><path class="cls-39" d="M280.43,485.11l3.6.16,3.6.16a63.31,63.31,0,0,0-5.08-21.36c-4.05.46-5.85,1.36-6.74,2.64,3.51,4.33,4.89,12.14,4.62,18.4Z"/><rect class="cls-24" x="316.78" y="663.12" width="182.04" height="4.48"/><polygon class="cls-24" points="519.29 667.6 395.02 667.6 427 576.58 551.27 576.58 519.29 667.6"/><path class="cls-25" d="M482.35,621a8,8,0,1,1-8-7.95A7.94,7.94,0,0,1,482.35,621Z"/><rect class="cls-19" x="0.66" y="667.6" width="1053.26" height="12.2"/><polygon class="cls-41" points="154.17 598.85 150.96 597.43 148.27 603.54 151.33 605.32 154.17 598.85"/><polygon class="cls-42" points="148.27 603.54 129.89 645.35 133.1 646.76 151.33 605.32 148.27 603.54"/><polygon class="cls-43" points="136.17 596.09 132.68 595.72 132.28 599.45 135.79 599.7 136.17 596.09"/><polygon class="cls-44" points="132.28 599.45 126.83 650.73 130.32 651.1 135.79 599.7 132.28 599.45"/><polygon class="cls-45" points="120.96 604.44 117.45 604.33 117.15 614.14 120.67 613.92 120.96 604.44"/><polygon class="cls-46" points="117.15 614.14 116.28 642.08 119.79 642.19 120.67 613.92 117.15 614.14"/><path class="cls-47" d="M107.8,629.09v38.59h32.48V624.43H112.46A4.66,4.66,0,0,0,107.8,629.09Z"/><path class="cls-48" d="M143.52,624.43h-5v43.25h9.7V629.09A4.66,4.66,0,0,0,143.52,624.43Z"/><polygon class="cls-19" points="1051.88 996.89 968.38 674 970.66 673.33 1054.16 996.22 1051.88 996.89"/><polygon class="cls-19" points="983.47 951.94 918.87 675.5 921.17 674.89 985.77 951.32 983.47 951.94"/><polygon class="cls-41" points="614.58 598.85 611.37 597.43 608.68 603.54 611.74 605.32 614.58 598.85"/><polygon class="cls-42" points="608.68 603.54 590.3 645.35 593.51 646.76 611.74 605.32 608.68 603.54"/><polygon class="cls-43" points="596.58 596.09 593.09 595.72 592.69 599.45 596.2 599.7 596.58 596.09"/><polygon class="cls-44" points="592.69 599.45 587.24 650.73 590.73 651.1 596.2 599.7 592.69 599.45"/><polygon class="cls-45" points="581.37 604.44 577.86 604.33 577.56 614.14 581.08 613.92 581.37 604.44"/><polygon class="cls-46" points="577.56 614.14 576.69 642.08 580.2 642.19 581.08 613.92 577.56 614.14"/><path class="cls-47" d="M568.21,629.09v38.59h32.48V624.43H572.87A4.66,4.66,0,0,0,568.21,629.09Z"/><path class="cls-48" d="M603.93,624.43h-5v43.25h9.7V629.09A4.66,4.66,0,0,0,603.93,624.43Z"/><path class="cls-6" d="M851,954.73h2.21v-5.88a39.43,39.43,0,0,1,39.39-39.38h76.13a39.43,39.43,0,0,1,39.38,39.38v5.88h2.21v-5.88a41.64,41.64,0,0,0-41.59-41.59H892.56A41.64,41.64,0,0,0,851,948.85Z"/><path class="cls-6" d="M999.27,964.21a10.87,10.87,0,0,1-10.71-11h0a10.87,10.87,0,0,1,10.86-10.71h.15a10.86,10.86,0,0,1-.15,21.72Zm-8.5-11h0a8.65,8.65,0,0,0,14.68,6.32,8.57,8.57,0,0,0,2.62-6.08,8.66,8.66,0,0,0-8.53-8.77h-.12A8.65,8.65,0,0,0,990.77,953.23Z"/><path class="cls-6" d="M861.68,964.21a10.86,10.86,0,0,1-10.71-11h0a10.86,10.86,0,0,1,10.86-10.71H862a10.86,10.86,0,0,1-.15,21.72Zm-8.5-11h0a8.56,8.56,0,0,0,2.44,6.15A8.65,8.65,0,1,0,862,944.7h-.12A8.65,8.65,0,0,0,853.18,953.23Z"/><path class="cls-6" d="M882.68,954.73h2.21v-5.88a39.42,39.42,0,0,1,39.38-39.38H937a39.43,39.43,0,0,1,39.38,39.38v5.88h2.21v-5.88A41.64,41.64,0,0,0,937,907.26H924.27a41.63,41.63,0,0,0-41.59,41.59Z"/><path class="cls-6" d="M967.56,964.21a10.87,10.87,0,0,1-10.71-11h0a10.87,10.87,0,0,1,10.86-10.71h.15a10.86,10.86,0,0,1-.15,21.72Zm-8.5-11h0a8.66,8.66,0,0,0,8.53,8.77,8.76,8.76,0,0,0,6.15-2.45,8.65,8.65,0,0,0-5.91-14.85h-.12A8.65,8.65,0,0,0,959.06,953.23Z"/><path class="cls-6" d="M893.39,964.21a10.86,10.86,0,0,1-10.71-11h0a10.87,10.87,0,0,1,10.86-10.71h.15a10.86,10.86,0,0,1-.15,21.72Zm-8.5-11h0a8.66,8.66,0,0,0,8.53,8.77,8.76,8.76,0,0,0,6.15-2.45,8.65,8.65,0,0,0-5.91-14.85h-.12A8.65,8.65,0,0,0,884.89,953.23Z"/><rect class="cls-6" x="929.52" y="776.67" width="2.21" height="132.09"/><path class="cls-4" d="M931.58,564.78h75a26.91,26.91,0,0,1,26.46,31.82L997.84,766.47H886.14Z"/><path class="cls-27" d="M837.57,774.83c0,4.32,2.83,7.8,6.27,7.79l154.08-.52c3.44,0,6.21-3.53,6.19-7.85h0c0-4.31-2.83-7.8-6.27-7.78L843.76,767c-3.44,0-6.22,3.53-6.19,7.85Z"/><path class="cls-6" d="M877.39,574.58c-11-12.64-20.12-23.8-2.28-45.49,9.81-11,19-26.6,19.46-39,.88-.64-4.25-6.24-3-12.67,4.79-13.52,37.48-19.54,46.19,8.88,6.27,16.65,28,15,26.88,31.71.47,5.84-2.79,13.89,8.1,18,7.66,3.1,12.75,9.23,13.39,16.33a4.72,4.72,0,0,1,.19,1.41c-.07,10.11-2.94,23.56,4.19,31.09,4.75,5,13,7.91,17.08,14.12,5.69,8.72,4.06,19.08-1.57,27-17.3,21.12-54.33,28.41-87.86,28.19C824.11,653.52,870.39,586.71,877.39,574.58Z"/><path class="cls-4" d="M773.06,608.65l69.64,17.44,36.94-77.49c3.66-8.66,13.27-12.88,21.46-9.42s11.84,13.3,8.17,22c0,0-42.51,84.14-43,84.71a13.14,13.14,0,0,1-16.85,6.61l-81.71-32.94Z"/><path class="cls-12" d="M646.74,908.68c.61-2.18,17.49-14.25,20.18-17L676.21,869c5.76.59,12.54,1.28,19.22,1.9L683.6,889.69c4.94,2.3,7,11,1.08,15l-37.34,9.59C647.17,914.32,646,910.73,646.74,908.68Z"/><path class="cls-8" d="M673.92,899.72c9-2.86,8.63-6.65,9.69-10.08,5,2.25,7.3,11.58,1.4,15.62l-37.88,10.11c-.17,0-1.59-4.17-.82-6.23a7.27,7.27,0,0,1,1.78-2.1C648.57,906.59,669.54,901.79,673.92,899.72Z"/><path class="cls-49" d="M679.83,959.72c0,5.64,24.56,10.21,54.85,10.21s54.86-4.57,54.86-10.21-24.55-10.2-54.86-10.2S679.83,954.09,679.83,959.72Z"/><path class="cls-9" d="M769.79,741.71c-1.5-6.89,6.9-18.47,16.38-19.86l43.82-4c4.28,1.77,8.49,3.93,9.3,7.34,2.19,9.22-11.59,20.39-30.78,24.95S772,750.93,769.79,741.71Z"/><path class="cls-2" d="M885.11,493.37,891,478.72s5-2.24,6.31-1.14c7.09,5.95,7.52,15.56,15.43,16.93l.66-.86a4.66,4.66,0,1,1,7.4,5.65l-3.35,4.39a4.61,4.61,0,0,1-1.63,1.33c0,.13.07.26.11.39s6.8,33.15,7.33,33.47c-8,3.54-20.8,16.88-25.46,10.07l1.49-28.68c-1.57-.29-6.78.13-8.46-.14-4.1-.58-4.07-4.59-4.11-8.07l.1-9.3C881.53,502.08,883.17,497.5,885.11,493.37Z"/><path class="cls-3" d="M908.63,519.35c.55-1.13-10.33,20.33-10.48,20.95,0,0,.88-20.07.73-20.09Z"/><path class="cls-3" d="M896.48,476.81c8.21,4.41,8.21,14.45,14.52,17.24-9.75-1.13-10.85-12.55-20.23-14.85C891.45,477.18,892.89,475.41,896.48,476.81Z"/><path class="cls-6" d="M881.87,513.6c17.48-.13,28.69-14.23,28.77-14.37l-1.57-1,.79.48-.79-.48c-.08.13-10.79,13.36-27.21,13.48h-.33v1.84Z"/><path class="cls-39" d="M879.7,514.22h1.65a1.54,1.54,0,0,0,1.52-1.54h0a1.53,1.53,0,0,0-1.54-1.51h-1.65a1.52,1.52,0,0,0-1.51,1.53h0A1.52,1.52,0,0,0,879.7,514.22Z"/><rect class="cls-39" x="902.06" y="484.41" width="21.02" height="26.19" rx="9.9" transform="translate(-20 38.59) rotate(-2.4)"/><rect class="cls-40" x="907.34" y="490.87" width="10.47" height="13.05" rx="4.93" transform="translate(1845.13 956.22) rotate(177.61)"/><path class="cls-39" d="M915.79,487.43l-3.6.16-3.6.16c-.08-1.82-1.17-12.83,2.86-21.65a15.65,15.65,0,0,1,7.42.81c-3.51,4.33-3.35,14.26-3.08,20.52Z"/><path class="cls-12" d="M714.34,959.74c1.15-2,23-10,25.9-11.77l1.87-16.69L759,930l-2.47,18.29c4.32,7,3.6,16.08-2.41,16.72l-40.54.28C713.39,965.32,713.08,961.54,714.34,959.74Z"/><path class="cls-7" d="M871.3,652.5l75.08,8.83c10.22,37.93,26.43,96.61-26.84,104.19C820.19,769.8,836.18,771,775.6,754a15.28,15.28,0,0,0-14.5,10.41L691,886.72l-26.31-4.6,54.91-171.73c5.92-23.18,28.7-27.74,50.9-21.72l89.33,15.83S871,654.78,871.3,652.5Z"/><path class="cls-8" d="M777.91,728.54C768.7,722.65,730.38,718,732,756.65l2.91,185.43,30.9-.65,29.09-173.1,47.79-.94C808.66,752.32,801.26,743,777.91,728.54Z"/><path class="cls-8" d="M717.4,957.22s18.83,1.64,29.77-.7c8.47-1.81,9.07-8,9.35-8.2,4.74,6.78,4.05,16.11-1.67,16.72l-41.27.28c-.56,0-.49-4.44.77-6.24A15.38,15.38,0,0,1,717.4,957.22Z"/><path class="cls-50" d="M865.58,678.84l87.7,12.9L969.73,564.4c.39-4.87-.2-7.41-3.14-11.78a22.29,22.29,0,0,0-11.81-8.85l-28.37-7H902.09c-4.16,2.12-9.88,3-13.57,4.73C857.35,603.61,857.63,586.81,865.58,678.84Z"/><polygon class="cls-25" points="921.92 529.8 929.26 537.14 909.5 560.28 899.34 550.69 921.92 529.8"/><polygon class="cls-25" points="899.34 550.69 898.15 534.88 888.52 541.45 888.05 556.33 899.34 550.69"/><path class="cls-2" d="M806.12,667.43l-6.39,0a11.84,11.84,0,0,1-7.32,1.16c-10.35-2.73-17.62-3-23.68-3.62-1.69-.11-2.3-2.74.58-2.78,3.68.09,7.43-.44,11.06-.45.07-.75-2.92-2-7.52-4.62l-16.5.81a2.94,2.94,0,0,1-3.41-1.9l5.4-1.08a31.49,31.49,0,0,1-4.05-.81c-1.5-.51-2.81-1.76-2.11-2.31-.09,0,13.88.47,18.54.63l1.88-.38c1.28-.08,6.33-1.11,9.34-.38l18.3,5.2,4.83-.74Z"/><path class="cls-25" d="M805.07,656.19l95.67-14.65,39.55-87.7c4.16-8.43,14-12.08,22-8.15s11.06,14,6.89,22.39l-46.79,90.35a8.16,8.16,0,0,1-.53.9A12.89,12.89,0,0,1,911,667l-104.92.45Z"/><circle class="cls-4" cx="824.62" cy="283.81" r="60.19"/><path class="cls-51" d="M845.92,323h-9.84v-2h9.84a10.78,10.78,0,0,0,9.08-6.06l.29-.68c1.53-3.68,2.5-6.12,2.7-6.68l0-.08v0l.05,0H860v.23c0,.21,0,.43-2.86,7.31l-.28.68A12.86,12.86,0,0,1,845.92,323Z"/><path class="cls-51" d="M821.64,238.84a34.26,34.26,0,0,0-34.12,34.31v5.78h5v-5.78a29.27,29.27,0,0,1,29.15-29.32h3v-5Z"/><path class="cls-51" d="M827.6,238.84h-3v5h3a29.26,29.26,0,0,1,29.15,29.32v5.78h5v-5.78A34.26,34.26,0,0,0,827.6,238.84Z"/><path class="cls-39" d="M869.83,279.54a10.43,10.43,0,0,0-6.81-3.49,8.22,8.22,0,0,0-4.21,0V313.5a8.22,8.22,0,0,0,4.21,0,10.43,10.43,0,0,0,6.81-3.49C872.39,306.8,872.39,282.74,869.83,279.54Z"/><path class="cls-51" d="M853.68,283.39v22.77c0,3.75,2.09,6.49,5.13,7.34V276.05C855.77,276.89,853.68,279.63,853.68,283.39Z"/><path class="cls-39" d="M786.22,276.05a10.43,10.43,0,0,0-6.81,3.49c-2.56,3.2-2.56,27.26,0,30.47a10.43,10.43,0,0,0,6.81,3.49,8.22,8.22,0,0,0,4.21,0V276.05A8.22,8.22,0,0,0,786.22,276.05Z"/><path class="cls-51" d="M790.43,276.05V313.5c3-.85,5.14-3.59,5.14-7.34V283.39C795.57,279.63,793.47,276.89,790.43,276.05Z"/><path class="cls-52" d="M823.85,328.77h7.07a7.33,7.33,0,0,0,7.33-7.33H816.53A7.33,7.33,0,0,0,823.85,328.77Z"/><path class="cls-52" d="M830.92,314.11h-7.07a7.33,7.33,0,0,0-7.32,7.33h21.72A7.33,7.33,0,0,0,830.92,314.11Z"/><path class="cls-52" d="M844,268.27H806.32c-1.34,0-3.33.68-3.33,2.12v24.42c0,1.32,2,3.22,3.33,3.22H814l8.19,8.19a.63.63,0,0,0,.77.12.65.65,0,0,0,.35-.7L822,298h22c1.39,0,3-1.95,3-3.22V270.39C847,268.93,845.22,268.27,844,268.27Zm-29.57,19h10.43v1.32H814.4Zm0-4.42h23.06v1.32H814.4Zm0-6.32h23.06v1.32H814.4Z"/><polygon class="cls-4" points="687.63 149.07 542.39 149.07 542.39 246.85 645.61 246.85 666.28 267.52 666.28 246.85 687.63 246.85 687.63 149.07"/><rect class="cls-51" x="554.49" y="160.63" width="31.42" height="7.62"/><rect class="cls-53" x="638" y="160.63" width="38.08" height="3.81"/><rect class="cls-53" x="662.75" y="168.93" width="13.19" height="3.81"/><rect class="cls-53" x="652" y="177.36" width="23.94" height="3.81"/><path class="cls-51" d="M597.31,212.35l8.11,17.82a4.69,4.69,0,0,0,8.54-3.89l-8.11-17.82Z"/><path class="cls-53" d="M595.81,186.5c-1.15.64-2.29,1.24-3.38,1.83l-2,1.09a12.47,12.47,0,0,0,10.31,22.63l2.16-.82c1.17-.45,2.38-.91,3.63-1.36a113.53,113.53,0,0,1-6-11.48A116.46,116.46,0,0,1,595.81,186.5Z"/><path class="cls-40" d="M619,163.36l-.12,0-.17.06-.22.08a3,3,0,0,0-1.44,1.61s0,0,0,0c-.18.38-.37.75-.55,1.12-1,3.32-.26,9.08,1.9,15.66a7.63,7.63,0,0,1,6.32,13.86c3.54,6,7.43,10.25,10.57,11.71l1.2.32h.06a2.94,2.94,0,0,0,2.15,0,1.55,1.55,0,0,0,.22-.12l.15-.08.1-.08c3.5-2.54,2.18-13.51-3.16-25.23S623.22,162.37,619,163.36Z"/><path class="cls-51" d="M621.17,189.06a67.48,67.48,0,0,1-2.79-7.1c-2.16-6.58-2.85-12.34-1.9-15.66C611,177.16,603,182.53,595.81,186.5a116.46,116.46,0,0,0,4.65,11.89,113.53,113.53,0,0,0,6,11.48c7.68-2.8,17-5.3,28.78-2.34-3.14-1.46-7-5.76-10.57-11.71A67.77,67.77,0,0,1,621.17,189.06Z"/><path class="cls-52" d="M624.7,195.82A7.63,7.63,0,0,0,618.38,182a71.44,71.44,0,0,0,6.32,13.86Z"/><path class="cls-54" d="M262.23,238.86H199a4.36,4.36,0,0,0-4.38,4.37v108a4.37,4.37,0,0,0,4.38,4.38h63.24a4.37,4.37,0,0,0,4.38-4.38v-108A4.36,4.36,0,0,0,262.23,238.86Z"/><rect class="cls-55" x="198.99" y="247.81" width="63.24" height="95.06"/><rect class="cls-51" x="198.99" y="247.81" width="63.24" height="26.85"/><circle class="cls-53" cx="230.61" cy="349.38" r="4.28"/><path class="cls-53" d="M234.79,242.65h-8.46a1.07,1.07,0,0,0,0,2.14h8.46a1.07,1.07,0,1,0,0-2.14Z"/><circle class="cls-40" cx="230.61" cy="271.45" r="12.36"/><path class="cls-39" d="M221.85,278.45a11.5,11.5,0,0,0,.2,1.85,12.19,12.19,0,0,0,17.12,0,10.38,10.38,0,0,0,.2-1.85,8.85,8.85,0,0,0-7.2-8.65,5,5,0,0,0,3.4-4.67,5,5,0,1,0-9.92,0,4.86,4.86,0,0,0,3.4,4.67A8.85,8.85,0,0,0,221.85,278.45Z"/><rect class="cls-56" x="209.59" y="288.57" width="12.36" height="12.36"/><rect class="cls-56" x="228.86" y="290.52" width="22.77" height="2.53"/><rect class="cls-56" x="228.86" y="296.55" width="22.77" height="2.53"/><rect class="cls-56" x="209.59" y="306.09" width="12.36" height="12.36"/><rect class="cls-56" x="228.86" y="307.94" width="22.77" height="2.53"/><rect class="cls-56" x="228.86" y="314.07" width="22.77" height="2.53"/><rect class="cls-56" x="209.59" y="323.6" width="12.36" height="12.36"/><rect class="cls-56" x="228.86" y="325.45" width="22.77" height="2.53"/><rect class="cls-56" x="228.86" y="331.58" width="22.77" height="2.53"/><circle class="cls-4" cx="383.17" cy="68.21" r="68.21"/><path class="cls-52" d="M373.75,50.29l-9.12-15.91a2.79,2.79,0,0,0-3-1.36l-7.76,1.54a4.79,4.79,0,0,0-3.55,2.94c-5.86,15.26-1,35.24,13.57,49.85l.12.11C378.65,102,398.63,106.9,413.89,101a4.79,4.79,0,0,0,2.94-3.54l1.54-7.76a2.8,2.8,0,0,0-1.36-3l-15.92-9.13a2.79,2.79,0,0,0-3.36.45l-9.38,9.35A37.95,37.95,0,0,1,364,63l9.36-9.38A2.8,2.8,0,0,0,373.75,50.29Z"/><path class="cls-54" d="M721.52,526.55H653.18l.44,10.12H722l-.44-10.12Z"/><ellipse class="cls-51" cx="660.17" cy="531.64" rx="1.62" ry="1.69" transform="translate(-176.49 667.56) rotate(-48.07)"/><ellipse class="cls-51" cx="665.73" cy="531.64" rx="1.62" ry="1.69" transform="translate(-174.65 671.69) rotate(-48.07)"/><ellipse class="cls-51" cx="671.22" cy="531.64" rx="1.62" ry="1.69" transform="translate(-172.82 675.77) rotate(-48.07)"/><path class="cls-53" d="M709.86,530H679.45a1.61,1.61,0,0,0-1.59,1.65,1.78,1.78,0,0,0,1.74,1.66h30.46a1.6,1.6,0,0,0,1.59-1.66A1.88,1.88,0,0,0,709.86,530Z"/><path class="cls-25" d="M653.62,536.67l2.12,49.13h68.41L722,536.67Z"/><polygon class="cls-51" points="709.1 543.48 711.46 543.48 712.99 578.92 710.63 578.92 709.1 543.48"/><polygon class="cls-52" points="678.53 548.51 704.59 548.51 705.04 558.88 678.98 558.88 678.53 548.51"/><polygon class="cls-51" points="665.57 563.46 705.24 563.46 705.68 573.83 666.02 573.83 665.57 563.46"/><path class="cls-2" d="M767.73,619.52l-9.83-4a12.15,12.15,0,0,1-7.44-2.67c-7.62-7.52-13.79-11.38-18.74-14.94-1.41-.93-.63-3.51,1.89-2.12,3.15,1.91,6.66,3.32,9.81,5.12.43-.62-1.51-3.22-4.22-7.75l-14.71-7.52a2.92,2.92,0,0,1-2-3.34l5.22,1.75a31.16,31.16,0,0,1-3.11-2.72c-1.05-1.18-1.56-2.92-.68-3l15.76,9.77,1.82.61c1.15.57,6,2.19,8.29,4.33l12.66,13,10.62,2.65Z"/></g></g></g></svg>