<svg xmlns="http://www.w3.org/2000/svg" xmlns:xlink="http://www.w3.org/1999/xlink" viewBox="0 0 2560 1440"><defs><style>.cls-1{fill:url(#linear-gradient);}.cls-2{fill:url(#linear-gradient-2);}.cls-3{fill:url(#linear-gradient-3);}.cls-4{fill:url(#radial-gradient);}.cls-5{mask:url(#mask);}.cls-6{fill:#005b50;}.cls-10,.cls-6,.cls-8{fill-rule:evenodd;}.cls-7{mask:url(#mask-2);}.cls-8{fill:#ecf955;}.cls-9{mask:url(#mask-3);}.cls-10{fill:#106b60;}</style><linearGradient id="linear-gradient" x1="-7559.22" y1="-35014.13" x2="-2440.93" y2="-24156.41" gradientTransform="matrix(-0.33, 0, 0, 0.33, 722.72, 9467.41)" gradientUnits="userSpaceOnUse"><stop offset="0" stop-color="#fff"/><stop offset="1" stop-color="#fff" stop-opacity="0"/></linearGradient><linearGradient id="linear-gradient-2" x1="-5555.68" y1="-29031.73" x2="425.77" y2="-26504.35" xlink:href="#linear-gradient"/><linearGradient id="linear-gradient-3" x1="2050.1" y1="-27052.53" x2="-4941.89" y2="-26315.43" xlink:href="#linear-gradient"/><radialGradient id="radial-gradient" cx="21151.83" cy="-6694.5" r="270.83" gradientTransform="matrix(7.71, -4.45, 3.86, 6.68, -137286.07, 140312.36)" gradientUnits="userSpaceOnUse"><stop offset="0" stop-color="#ecf955"/><stop offset="1" stop-color="#007b70"/></radialGradient><mask id="mask" x="1227.73" y="-249.19" width="1342.67" height="1938.39" maskUnits="userSpaceOnUse"><g id="id0"><rect class="cls-1" x="1227.73" y="-249.19" width="1342.67" height="1938.39"/></g></mask><mask id="mask-2" x="-12.35" y="-249.19" width="1268.01" height="1938.39" maskUnits="userSpaceOnUse"><g id="id2"><rect class="cls-2" x="-12.35" y="-249.19" width="1266.16" height="1938.39"/></g></mask><mask id="mask-3" x="342.47" y="-249.19" width="2529.02" height="1938.39" maskUnits="userSpaceOnUse"><g id="id4"><rect class="cls-3" x="342.47" y="-249.19" width="2529.02" height="1938.39"/></g></mask></defs><g id="Livello_2" data-name="Livello 2"><g id="Livello_1-2" data-name="Livello 1"><rect class="cls-4" width="2560" height="1440"/><g class="cls-5"><path class="cls-6" d="M2560,1440H1438.14c219.45-310.88,501.09-863,265.28-1440H2560Z"/></g><g class="cls-7"><path class="cls-8" d="M1255.66,1440c-1.14-351.9-98.85-1005.75-755.48-1440H0V1440Z"/></g><g class="cls-9"><path class="cls-10" d="M1127.59,0c788.54,391.16,1002.12,1074.81,1059.84,1440H2560V0Z"/></g></g></g></svg>