<svg width="308" height="41" viewBox="0 0 308 41" fill="none" xmlns="http://www.w3.org/2000/svg">
<g clip-path="url(#clip0_12031_21403)">
<path d="M112.681 25.6017C112.681 20.3205 111.437 16.1421 108.987 13.1733C106.488 10.1473 102.989 8.61328 98.5738 8.61328C94.1588 8.61328 90.4764 10.2045 87.7633 13.3412C85.2028 16.3023 83.9054 20.0687 83.9054 24.5333C83.9054 29.1544 85.0845 32.8978 87.4084 35.6719C89.9727 38.7056 93.7352 40.251 98.5738 40.251C102.39 40.251 105.511 39.2703 107.869 37.3319C109.873 35.6719 111.395 33.2603 112.391 30.1694L112.674 29.2841H107.221L107.087 29.8107C106.685 31.6222 105.612 33.2144 104.084 34.2677C102.46 35.359 100.537 35.9178 98.5814 35.8665C95.5287 35.8665 93.1933 34.9202 91.4953 32.9665C90.0223 31.2722 89.2057 29.0284 89.1141 26.2924H112.681V25.6017ZM98.5623 12.9901C101.424 12.9901 103.596 13.9403 105.21 15.8902C106.568 17.5234 107.308 19.6336 107.427 22.1598H89.2019C89.5389 19.8706 90.5 17.7186 91.9799 15.9398C92.7846 14.9799 93.7971 14.2154 94.9408 13.7044C96.0845 13.1934 97.3294 12.9491 98.5814 12.9901H98.5623Z" fill="#047857"/>
<path d="M127.315 13.7436H134.05V8.78293H126.941V5.49361C126.941 0.273435 121.828 0.273438 121.828 0.273438V8.78293H116.921V13.7436H121.839V28.3509C121.839 31.957 123.019 34.8762 125.339 37.036C127.659 39.1958 130.471 40.2413 134.031 40.2413V35.3951C131.578 35.3951 129.761 34.59 128.468 32.9377C127.428 31.5721 126.889 29.8909 126.941 28.1754V13.7436H127.315Z" fill="#047857"/>
<path d="M66.375 13.4671C68.8325 13.4671 70.6565 14.2685 71.9539 15.9208C72.9927 17.2853 73.5315 18.9651 73.4803 20.6792V35.0271C73.4803 40.2434 78.5936 40.2434 78.5936 40.2434V20.5075C78.5936 16.9511 77.4488 14.051 75.1822 11.8683C72.8583 9.67792 69.9887 8.61328 66.4056 8.61328C62.8224 8.61328 60.0101 9.66266 57.7167 11.8225C55.4234 13.9823 54.2175 16.9014 54.2175 20.5075V40.2434H59.3232V20.6907C59.2696 18.975 59.8086 17.2932 60.8496 15.9284C62.105 14.2685 63.9214 13.4671 66.375 13.4671Z" fill="#047857"/>
<path d="M161.7 11.8665C159.38 9.67613 156.515 8.61149 152.924 8.61149C150.15 8.61149 147.822 9.26019 145.841 10.5614V0.285156H140.732V40.2416H145.838V20.6889C145.784 18.9732 146.323 17.2914 147.364 15.9266C148.658 14.2781 150.474 13.4768 152.928 13.4768C155.381 13.4768 157.209 14.2781 158.503 15.9304C159.532 17.2982 160.06 18.9781 159.998 20.6889V35.0825C159.998 40.2989 165.112 40.2989 165.112 40.2989V20.5057C165.119 16.9493 163.967 14.0492 161.7 11.8665Z" fill="#047857"/>
<path d="M181.627 39.6283L170.344 9.24219H175.926L184.447 34.5684H184.565L192.854 9.24219H198.081L186.977 39.6245L181.627 39.6283Z" fill="#047857"/>
<path d="M201.974 18.2048C202.556 16.3444 203.516 14.6243 204.794 13.1525C206.075 11.7009 207.659 10.5481 209.434 9.77541C213.516 8.12695 218.078 8.12695 222.16 9.77541C223.926 10.5526 225.501 11.705 226.777 13.1525C228.055 14.625 229.016 16.3448 229.601 18.2048C230.24 20.2301 230.556 22.3431 230.54 24.4667C230.558 26.5791 230.241 28.6811 229.601 30.6943C229.012 32.5443 228.051 34.2544 226.777 35.7198C225.508 37.1631 223.933 38.3061 222.168 39.0664C218.078 40.674 213.531 40.674 209.441 39.0664C207.664 38.3114 206.079 37.1679 204.801 35.7198C203.525 34.2558 202.562 32.5453 201.974 30.6943C201.33 28.6817 201.012 26.5795 201.031 24.4667C201.014 22.3428 201.332 20.2294 201.974 18.2048ZM207.057 29.3701C207.482 30.6906 208.172 31.9109 209.083 32.9571C209.921 33.9008 210.953 34.6519 212.109 35.1589C213.267 35.6659 214.517 35.9276 215.782 35.9276C217.046 35.9276 218.296 35.6659 219.454 35.1589C220.61 34.6519 221.642 33.9008 222.48 32.9571C223.392 31.9104 224.082 30.6903 224.511 29.3701C225.483 26.1658 225.475 22.7439 224.488 19.5442C224.055 18.2177 223.366 16.9896 222.458 15.9305C221.625 14.9721 220.592 14.2087 219.432 13.6944C218.272 13.191 217.022 12.9312 215.759 12.9312C214.495 12.9312 213.245 13.191 212.086 13.6944C210.925 14.2087 209.892 14.9721 209.06 15.9305C208.152 16.9889 207.463 18.2172 207.034 19.5442C206.052 22.7407 206.052 26.1583 207.034 29.3549L207.057 29.3701Z" fill="#047857"/>
<path d="M267.607 14.5332C266.353 13.4774 264.669 12.9483 262.555 12.9457C260.986 12.8912 259.429 13.2352 258.029 13.9455C256.856 14.573 255.857 15.4816 255.122 16.5899C254.37 17.7448 253.841 19.0299 253.561 20.3791C253.245 21.8372 253.088 23.3252 253.092 24.8171C253.089 26.2035 253.257 27.5851 253.591 28.9306C253.895 30.1991 254.423 31.4033 255.148 32.487C255.857 33.5277 256.804 34.3835 257.911 34.9826C259.16 35.6387 260.557 35.9632 261.967 35.9252C264.432 35.9252 266.362 35.2777 267.756 33.9829C269.15 32.688 270.001 30.8665 270.309 28.5185H275.422C274.873 32.281 273.474 35.1798 271.225 37.215C268.976 39.2501 265.911 40.2677 262.028 40.2677C259.928 40.3057 257.841 39.927 255.889 39.1535C254.172 38.4573 252.642 37.3701 251.42 35.9786C250.192 34.5462 249.272 32.8756 248.719 31.0713C248.092 29.0451 247.785 26.9339 247.807 24.8132C247.791 22.6563 248.088 20.5085 248.688 18.4368C249.227 16.5532 250.135 14.7955 251.359 13.2663C252.573 11.7822 254.111 10.5957 255.854 9.7976C257.832 8.92009 259.979 8.48886 262.143 8.53453C263.779 8.52327 265.409 8.73117 266.989 9.15271C268.43 9.53294 269.786 10.1801 270.988 11.0607C272.154 11.9378 273.124 13.0492 273.835 14.3233C274.621 15.767 275.101 17.3568 275.247 18.994H270.069C269.677 17.0707 268.856 15.5838 267.607 14.5332Z" fill="#047857"/>
<path d="M302.504 37.69C300.232 39.4097 297.373 40.2708 293.926 40.2733C291.762 40.3236 289.611 39.9234 287.61 39.098C285.882 38.3559 284.345 37.2312 283.115 35.8087C281.862 34.3318 280.93 32.6098 280.379 30.7526C279.752 28.6738 279.407 26.5202 279.353 24.3495C279.328 22.1935 279.686 20.0501 280.41 18.0189C281.068 16.1779 282.076 14.4816 283.379 13.0239C284.64 11.6212 286.182 10.4992 287.904 9.73075C289.707 8.93542 291.658 8.5347 293.628 8.55545C296.33 8.55545 298.572 9.11384 300.356 10.2306C302.094 11.3044 303.562 12.7626 304.648 14.493C305.728 16.2225 306.484 18.1334 306.881 20.1329C307.281 22.0455 307.449 23.9994 307.381 25.9522H284.638C284.593 27.2321 284.752 28.5111 285.107 29.7414C285.443 30.9079 286.025 31.9891 286.813 32.9124C287.634 33.8624 288.657 34.6161 289.808 35.118C291.163 35.6955 292.625 35.9765 294.097 35.9423C296.217 35.9423 297.95 35.4526 299.299 34.4731C300.647 33.4937 301.537 32.0043 301.97 30.0047H306.911C306.247 33.4034 304.778 35.9652 302.504 37.69ZM301.302 18.1792C300.649 16.6115 299.541 15.2753 298.122 14.3429C296.702 13.4104 295.036 12.9244 293.338 12.9476C292.139 12.9292 290.949 13.1591 289.843 13.623C288.836 14.053 287.928 14.6826 287.172 15.4737C286.422 16.269 285.824 17.1951 285.409 18.2059C284.973 19.2642 284.715 20.3872 284.645 21.5296H302.099C302.024 20.3759 301.754 19.2431 301.302 18.1792Z" fill="#047857"/>
<path d="M241.686 9.24219V39.6245H236.698V9.24219H241.686Z" fill="#047857"/>
<path d="M239.19 5.94283C240.632 5.94283 241.8 4.77425 241.8 3.33274C241.8 1.89123 240.632 0.722656 239.19 0.722656C237.749 0.722656 236.58 1.89123 236.58 3.33274C236.58 4.77425 237.749 5.94283 239.19 5.94283Z" fill="#047857"/>
<path d="M30.639 30.6759C28.7349 30.6774 26.8494 30.3015 25.0914 29.5699C23.3335 28.8383 21.7379 27.7655 20.3971 26.4135C18.2809 24.3061 15.416 23.1229 12.4295 23.1229C9.44291 23.1229 6.578 24.3061 4.46183 26.4135L4.18709 26.6883L0.596313 23.0937L0.86724 22.8189C3.93667 19.758 8.09463 18.0391 12.4295 18.0391C16.7643 18.0391 20.9223 19.758 23.9917 22.8189C24.8658 23.6953 25.9043 24.3907 27.0475 24.8651C28.1908 25.3396 29.4165 25.5838 30.6543 25.5838C31.8921 25.5838 33.1177 25.3396 34.261 24.8651C35.4043 24.3907 36.4427 23.6953 37.3169 22.8189L37.5878 22.5442L41.1862 26.135L40.9115 26.4097C39.5675 27.7662 37.9671 28.8419 36.2036 29.5743C34.4401 30.3067 32.5486 30.6812 30.639 30.6759Z" fill="#047857"/>
</g>
<defs>
<clipPath id="clip0_12031_21403">
<rect width="306.807" height="40" fill="white" transform="translate(0.596313 0.285156)"/>
</clipPath>
</defs>
</svg>
