<svg width="308" height="40" viewBox="0 0 308 40" fill="none" xmlns="http://www.w3.org/2000/svg">
<g clip-path="url(#clip0_12031_21419)">
<path d="M112.681 25.3166C112.681 20.0354 111.437 15.8569 108.988 12.8881C106.488 9.86212 102.989 8.32812 98.5739 8.32812C94.1589 8.32812 90.4765 9.91936 87.7634 13.056C85.2029 16.0172 83.9055 19.7835 83.9055 24.2481C83.9055 28.8692 85.0846 32.6126 87.4085 35.3868C89.9728 38.4204 93.7353 39.9659 98.5739 39.9659C102.39 39.9659 105.511 38.9852 107.869 37.0467C109.873 35.3868 111.395 32.9751 112.391 29.8842L112.674 28.9989H107.221L107.087 29.5255C106.685 31.3371 105.612 32.9293 104.084 33.9825C102.46 35.0739 100.537 35.6327 98.5815 35.5814C95.5288 35.5814 93.1935 34.6351 91.4954 32.6813C90.0224 30.987 89.2058 28.7433 89.1142 26.0073H112.681V25.3166ZM98.5625 12.705C101.424 12.705 103.596 13.6551 105.21 15.6051C106.568 17.2383 107.309 19.3485 107.427 21.8746H89.202C89.539 19.5855 90.5001 17.4334 91.98 15.6547C92.7847 14.6947 93.7972 13.9303 94.9409 13.4193C96.0846 12.9082 97.3295 12.664 98.5815 12.705H98.5625Z" fill="#10B981"/>
<path d="M127.315 13.4585H134.05V8.49777H126.941V5.20845C126.941 -0.0117217 121.828 -0.0117188 121.828 -0.0117188V8.49777H116.921V13.4585H121.839V28.0658C121.839 31.6718 123.019 34.591 125.339 36.7508C127.659 38.9106 130.471 39.9562 134.031 39.9562V35.11C131.578 35.11 129.761 34.3048 128.468 32.6525C127.428 31.287 126.889 29.6057 126.941 27.8903V13.4585H127.315Z" fill="#10B981"/>
<path d="M66.3751 13.182C68.8325 13.182 70.6566 13.9833 71.954 15.6356C72.9927 17.0001 73.5315 18.6799 73.4803 20.3941V34.7419C73.4803 39.9583 78.5937 39.9583 78.5937 39.9583V20.2223C78.5937 16.6659 77.4489 13.7658 75.1822 11.5831C72.8583 9.39277 69.9888 8.32812 66.4056 8.32812C62.8225 8.32812 60.0101 9.3775 57.7168 11.5373C55.4234 13.6971 54.2176 16.6163 54.2176 20.2223V39.9583H59.3233V20.4055C59.2696 18.6898 59.8087 17.0081 60.8497 15.6432C62.1051 13.9833 63.9215 13.182 66.3751 13.182Z" fill="#10B981"/>
<path d="M161.701 11.5813C159.38 9.39097 156.515 8.32633 152.924 8.32633C150.15 8.32633 147.822 8.97503 145.842 10.2763V0H140.732V39.9565H145.838V20.4037C145.784 18.688 146.323 17.0063 147.364 15.6414C148.658 13.993 150.474 13.1916 152.928 13.1916C155.381 13.1916 157.209 13.993 158.503 15.6453C159.532 17.0131 160.06 18.693 159.999 20.4037V34.7973C159.999 40.0137 165.112 40.0137 165.112 40.0137V20.2205C165.12 16.6641 163.967 13.764 161.701 11.5813Z" fill="#10B981"/>
<path d="M181.627 39.3432L170.344 8.95703H175.926L184.447 34.2833H184.565L192.854 8.95703H198.081L186.977 39.3394L181.627 39.3432Z" fill="#10B981"/>
<path d="M201.974 17.9196C202.556 16.0592 203.516 14.3392 204.794 12.8673C206.075 11.4158 207.659 10.263 209.434 9.49026C213.516 7.84179 218.078 7.84179 222.16 9.49026C223.926 10.2675 225.501 11.4199 226.777 12.8673C228.055 14.3399 229.016 16.0596 229.601 17.9196C230.24 19.9449 230.556 22.058 230.54 24.1815C230.558 26.294 230.241 28.3959 229.601 30.4091C229.012 32.2591 228.051 33.9693 226.777 35.4347C225.508 36.8779 223.933 38.021 222.168 38.7812C218.078 40.3889 213.531 40.3889 209.441 38.7812C207.664 38.0262 206.079 36.8827 204.801 35.4347C203.525 33.9707 202.562 32.2602 201.974 30.4091C201.33 28.3966 201.012 26.2943 201.031 24.1815C201.014 22.0576 201.332 19.9443 201.974 17.9196ZM207.057 29.085C207.482 30.4054 208.172 31.6257 209.083 32.6719C209.921 33.6156 210.953 34.3667 212.109 34.8737C213.267 35.3807 214.517 35.6425 215.782 35.6425C217.046 35.6425 218.296 35.3807 219.454 34.8737C220.61 34.3667 221.642 33.6156 222.48 32.6719C223.392 31.6252 224.082 30.4052 224.511 29.085C225.483 25.8807 225.475 22.4588 224.488 19.259C224.055 17.9325 223.366 16.7045 222.458 15.6453C221.625 14.687 220.592 13.9235 219.432 13.4092C218.272 12.9058 217.022 12.646 215.759 12.646C214.495 12.646 213.245 12.9058 212.086 13.4092C210.925 13.9235 209.892 14.687 209.06 15.6453C208.152 16.7037 207.463 17.9321 207.034 19.259C206.052 22.4555 206.052 25.8732 207.034 29.0697L207.057 29.085Z" fill="#10B981"/>
<path d="M267.607 14.248C266.353 13.1923 264.669 12.6631 262.555 12.6606C260.986 12.606 259.429 12.95 258.029 13.6603C256.856 14.2878 255.857 15.1964 255.122 16.3048C254.37 17.4597 253.841 18.7448 253.561 20.094C253.245 21.5521 253.088 23.04 253.092 24.5319C253.089 25.9184 253.257 27.2999 253.592 28.6455C253.895 29.9139 254.423 31.1182 255.148 32.2019C255.857 33.2426 256.804 34.0984 257.911 34.6975C259.16 35.3535 260.557 35.6781 261.967 35.64C264.433 35.64 266.362 34.9926 267.756 33.6977C269.15 32.4029 270.001 30.5814 270.309 28.2333H275.422C274.873 31.9958 273.474 34.8946 271.225 36.9298C268.976 38.965 265.911 39.9825 262.029 39.9825C259.928 40.0206 257.842 39.6419 255.889 38.8683C254.173 38.1721 252.642 37.085 251.42 35.6935C250.192 34.2611 249.272 32.5904 248.719 30.7862C248.092 28.76 247.785 26.6488 247.807 24.5281C247.791 22.3712 248.088 20.2234 248.688 18.1517C249.227 16.268 250.135 14.5104 251.359 12.9811C252.573 11.4971 254.111 10.3106 255.854 9.51245C257.833 8.63493 259.98 8.2037 262.143 8.24938C263.779 8.23811 265.409 8.44602 266.989 8.86755C268.43 9.24778 269.786 9.89497 270.988 10.7755C272.154 11.6527 273.124 12.764 273.835 14.0381C274.621 15.4818 275.101 17.0716 275.247 18.7088H270.069C269.677 16.7856 268.857 15.2986 267.607 14.248Z" fill="#10B981"/>
<path d="M302.504 37.4048C300.232 39.1245 297.373 39.9856 293.926 39.9882C291.762 40.0385 289.611 39.6382 287.61 38.8129C285.882 38.0708 284.345 36.9461 283.115 35.5236C281.862 34.0466 280.93 32.3246 280.379 30.4675C279.752 28.3887 279.407 26.2351 279.353 24.0644C279.329 21.9083 279.686 19.765 280.41 17.7338C281.068 15.8927 282.076 14.1965 283.379 12.7387C284.64 11.336 286.182 10.214 287.904 9.4456C289.707 8.65026 291.658 8.24954 293.628 8.2703C296.33 8.2703 298.572 8.82869 300.356 9.94548C302.094 11.0192 303.562 12.4774 304.649 14.2079C305.728 15.9373 306.484 17.8482 306.881 19.8478C307.281 21.7603 307.449 23.7142 307.381 25.6671H284.638C284.593 26.947 284.752 28.2259 285.107 29.4563C285.443 30.6227 286.025 31.7039 286.813 32.6273C287.634 33.5772 288.658 34.3309 289.808 34.8329C291.163 35.4103 292.625 35.6913 294.098 35.6571C296.217 35.6571 297.95 35.1674 299.299 34.188C300.647 33.2086 301.537 31.7191 301.97 29.7196H306.911C306.247 33.1183 304.778 35.68 302.504 37.4048ZM301.302 17.894C300.649 16.3263 299.541 14.9902 298.122 14.0577C296.702 13.1253 295.036 12.6393 293.338 12.6624C292.139 12.644 290.949 12.874 289.843 13.3378C288.836 13.7678 287.928 14.3974 287.172 15.1885C286.422 15.9839 285.824 16.9099 285.409 17.9207C284.973 18.979 284.715 20.102 284.646 21.2444H302.1C302.024 20.0907 301.754 18.958 301.302 17.894Z" fill="#10B981"/>
<path d="M241.686 8.95703V39.3394H236.699V8.95703H241.686Z" fill="#10B981"/>
<path d="M239.19 5.65767C240.632 5.65767 241.8 4.4891 241.8 3.04759C241.8 1.60608 240.632 0.4375 239.19 0.4375C237.749 0.4375 236.58 1.60608 236.58 3.04759C236.58 4.4891 237.749 5.65767 239.19 5.65767Z" fill="#10B981"/>
<path d="M30.6391 30.3908C28.735 30.3923 26.8494 30.0163 25.0915 29.2847C23.3335 28.5531 21.738 27.4803 20.3972 26.1284C18.281 24.0209 15.4161 22.8377 12.4295 22.8377C9.44298 22.8377 6.57806 24.0209 4.46189 26.1284L4.18715 26.4031L0.596375 22.8085L0.867301 22.5338C3.93673 19.4728 8.09469 17.7539 12.4295 17.7539C16.7644 17.7539 20.9223 19.4728 23.9918 22.5338C24.8659 23.4102 25.9043 24.1055 27.0476 24.58C28.1909 25.0544 29.4165 25.2986 30.6543 25.2986C31.8922 25.2986 33.1178 25.0544 34.2611 24.58C35.4044 24.1055 36.4428 23.4102 37.3169 22.5338L37.5879 22.259L41.1863 25.8498L40.9115 26.1246C39.5675 27.481 37.9672 28.5568 36.2037 29.2892C34.4402 30.0216 32.5486 30.396 30.6391 30.3908Z" fill="#10B981"/>
</g>
<defs>
<clipPath id="clip0_12031_21419">
<rect width="306.807" height="40" fill="white" transform="translate(0.596375)"/>
</clipPath>
</defs>
</svg>
