<svg width="300" height="36" viewBox="0 0 300 36" fill="none" xmlns="http://www.w3.org/2000/svg">
<g clip-path="url(#clip0_9070_5969)">
<mask id="mask0_9070_5969" style="mask-type:luminance" maskUnits="userSpaceOnUse" x="-196" y="-227" width="692" height="489">
<path d="M-195.744 -226.983H495.792V261.982H-195.744V-226.983Z" fill="white"/>
</mask>
<g mask="url(#mask0_9070_5969)">
<path d="M117.292 12.7228C119.635 12.7228 121.408 13.4982 122.733 15.0934C123.846 16.429 124.45 18.1556 124.544 20.2239H109.616C109.971 18.1803 110.731 16.4718 111.888 15.132C113.299 13.5106 115.064 12.7228 117.292 12.7228ZM128.836 23.0389C128.836 18.7199 127.818 15.2988 125.813 12.8699C123.768 10.395 120.903 9.1382 117.292 9.1382C113.641 9.1382 110.667 10.441 108.446 13.007C106.352 15.4302 105.287 18.5105 105.287 22.1658C105.287 25.9483 106.253 29.0114 108.154 31.2818C110.254 33.7632 113.332 35.0225 117.292 35.0225C120.411 35.0225 122.967 34.2199 124.897 32.633C126.541 31.2727 127.786 29.3022 128.597 26.7722L128.829 26.0477H124.361L124.251 26.4814C123.858 28.0561 123.055 29.2488 121.795 30.1252C120.546 30.9951 119.026 31.4329 117.292 31.4329C114.781 31.4329 112.881 30.6608 111.494 29.0607C110.287 27.6733 109.631 25.8383 109.546 23.6016H128.836V23.0389Z" fill="#059669"/>
<path d="M140.804 13.3364H146.303V9.28771H140.497V6.59595C140.497 2.32708 136.313 2.32708 136.313 2.32708V9.28771H132.298V13.3364H136.313V25.292C136.313 28.2409 137.279 30.6312 139.175 32.3997C141.053 34.16 143.375 35.0225 146.293 35.0225V31.0534C144.282 31.0534 142.797 30.3987 141.74 29.0459C140.916 28.0035 140.497 26.6934 140.497 25.1483V13.3364H140.804Z" fill="#059669"/>
<path d="M90.9382 13.1087C92.9482 13.1087 94.4407 13.7651 95.5036 15.1171C96.3201 16.157 96.7365 17.4663 96.7365 19.0106V30.7526C96.7365 35.0215 100.918 35.0215 100.918 35.0215V18.8676C100.918 15.9599 99.9778 13.586 98.1297 11.8011C96.2273 10.0096 93.8805 9.13805 90.9382 9.13805C88.0288 9.13805 85.7058 9.99643 83.8264 11.7657C81.9241 13.5293 80.963 15.9213 80.963 18.8676V35.0215H85.1415V19.0106C85.1415 17.4647 85.5604 16.157 86.3851 15.1154C87.4431 13.7651 88.9315 13.1087 90.9382 13.1087Z" fill="#059669"/>
<path d="M168.943 11.8014C167.042 10.0091 164.699 9.13754 161.758 9.13754C159.485 9.13754 157.581 9.66653 155.96 10.7352V1.2709H151.781V18.868V26.0471H155.96V19.0109C155.96 17.465 156.377 16.1573 157.2 15.1158C158.263 13.7654 159.749 13.1091 161.758 13.1091C163.762 13.1091 165.258 13.7654 166.317 15.1174C167.139 16.1573 167.553 17.4666 167.553 19.0109V30.757C167.553 35.0234 171.739 35.0234 171.739 35.0234V18.868C171.739 15.9602 170.795 13.5863 168.943 11.8014Z" fill="#059669"/>
<path d="M201.285 9.81059L191.768 35.0254H190.541L180.19 9.81059H181.319L191.081 34.0446H191.18L200.206 9.81059H201.285Z" fill="#059669"/>
<path d="M208.619 27.0303C209.06 28.5015 209.723 29.8018 210.606 30.9295C211.489 32.0582 212.575 32.9584 213.868 33.6279C215.16 34.299 216.655 34.6341 218.357 34.6341C220.025 34.6341 221.504 34.299 222.796 33.6279C224.088 32.9584 225.175 32.0582 226.058 30.9295C226.942 29.8018 227.604 28.5015 228.045 27.0303C228.486 25.5584 228.708 24.0215 228.708 22.4189C228.708 20.8492 228.486 19.328 228.045 17.856C227.604 16.3849 226.942 15.0846 226.058 13.9559C225.175 12.8281 224.088 11.9197 222.796 11.2338C221.504 10.5471 220.025 10.2037 218.357 10.2037C216.655 10.2037 215.16 10.5471 213.868 11.2338C212.575 11.9197 211.489 12.8281 210.606 13.9559C209.723 15.0846 209.06 16.3849 208.619 17.856C208.178 19.328 207.956 20.8492 207.956 22.4189C207.956 24.0215 208.178 25.5584 208.619 27.0303ZM207.711 17.4395C208.201 15.8534 208.929 14.4554 209.894 13.2454C210.859 12.0355 212.044 11.0621 213.451 10.3261C214.857 9.59015 216.493 9.22216 218.357 9.22216C220.188 9.22216 221.806 9.59015 223.214 10.3261C224.619 11.0621 225.805 12.0355 226.77 13.2454C227.734 14.4554 228.462 15.8534 228.954 17.4395C229.444 19.0265 229.688 20.6849 229.688 22.4189C229.688 24.1521 229.444 25.8122 228.954 27.3975C228.462 28.9845 227.734 30.3825 226.77 31.5924C225.805 32.8024 224.619 33.7675 223.214 34.4863C221.806 35.2058 220.171 35.5664 218.307 35.5664C216.475 35.5664 214.857 35.2058 213.451 34.4863C212.044 33.7675 210.859 32.8024 209.894 31.5924C208.929 30.3825 208.201 28.9845 207.711 27.3975C207.221 25.8122 206.976 24.1521 206.976 22.4189C206.976 20.6849 207.221 19.0265 207.711 17.4395Z" fill="#059669"/>
<path d="M238.666 9.81157H239.647V35.0264H238.666V9.81157ZM238.666 -0.000171661H239.647V4.95456H238.666V-0.000171661Z" fill="#059669"/>
<path d="M269.228 30.2427C268.671 31.3713 267.945 32.3274 267.045 33.1127C266.145 33.8971 265.099 34.5033 263.905 34.928C262.711 35.3527 261.395 35.5654 259.957 35.5654C258.156 35.5654 256.563 35.2295 255.173 34.56C253.783 33.8898 252.614 32.9821 251.666 31.8371C250.717 30.6928 249.997 29.3597 249.507 27.8393C249.017 26.3188 248.772 24.6916 248.772 22.9584C248.772 21.1267 249.008 19.3853 249.482 17.7335C249.956 16.0824 250.676 14.6269 251.642 13.3677C252.606 12.1093 253.832 11.103 255.32 10.3506C256.809 9.59821 258.55 9.22201 260.546 9.22201C261.722 9.22201 262.851 9.4019 263.93 9.76167C265.009 10.1215 265.973 10.6447 266.825 11.3322C267.674 12.0181 268.386 12.8765 268.959 13.9065C269.53 14.9374 269.898 16.1235 270.063 17.4632H269.08C268.885 16.2212 268.524 15.1501 268.002 14.2499C267.478 13.3521 266.841 12.5996 266.089 11.9934C265.336 11.3889 264.486 10.9396 263.538 10.6447C262.589 10.3506 261.592 10.2036 260.546 10.2036C258.55 10.2036 256.857 10.588 255.468 11.356C254.077 12.1249 252.965 13.1221 252.132 14.3484C251.299 15.5756 250.692 16.9482 250.317 18.4694C249.941 19.9907 249.753 21.4865 249.753 22.9584C249.753 24.4953 249.974 25.9673 250.415 27.3735C250.857 28.7798 251.502 30.0217 252.352 31.1019C253.203 32.1804 254.266 33.0388 255.542 33.677C256.818 34.3144 258.289 34.634 259.957 34.634C261.199 34.634 262.36 34.4458 263.44 34.0688C264.519 33.6934 265.476 33.1456 266.309 32.426C267.143 31.7064 267.821 30.8481 268.345 29.8501C268.868 28.8537 269.179 27.7169 269.278 26.4412H270.258C270.128 27.8475 269.784 29.1149 269.228 30.2427Z" fill="#059669"/>
<path d="M298.367 17.2429C297.942 15.8531 297.314 14.635 296.479 13.5885C295.645 12.5412 294.607 11.7157 293.363 11.1111C292.121 10.5057 290.682 10.2035 289.047 10.2035C287.673 10.2035 286.39 10.4655 285.196 10.9879C284.003 11.5111 282.955 12.2718 282.057 13.269C281.156 14.267 280.429 15.4695 279.873 16.8749C279.317 18.282 278.99 19.8673 278.893 21.6334H299.006C299.006 20.0965 298.793 18.6328 298.367 17.2429ZM279.505 27.3487C279.881 28.8043 280.461 30.0709 281.247 31.151C282.032 32.2295 283.046 33.0805 284.288 33.7015C285.531 34.3233 287.052 34.6338 288.851 34.6338C291.5 34.6338 293.699 33.9389 295.449 32.5491C297.198 31.1584 298.285 29.0737 298.711 26.294H299.692C299.332 29.238 298.172 31.5182 296.21 33.1372C294.247 34.7562 291.827 35.5661 288.948 35.5661C286.987 35.5981 285.31 35.2877 283.92 34.6338C282.53 33.98 281.394 33.0559 280.512 31.8616C279.629 30.6689 278.974 29.2618 278.549 27.6428C278.123 26.0238 277.911 24.2824 277.911 22.4186C277.911 20.3257 278.222 18.4611 278.842 16.8257C279.463 15.191 280.282 13.8086 281.296 12.68C282.31 11.5522 283.487 10.6938 284.829 10.1049C286.168 9.51675 287.542 9.22187 288.948 9.22187C290.911 9.22187 292.603 9.59807 294.026 10.3505C295.449 11.1029 296.609 12.1001 297.509 13.3429C298.408 14.5865 299.062 16.0084 299.471 17.6109C299.88 19.2135 300.052 20.8818 299.986 22.6149H278.893C278.925 24.3153 279.129 25.8932 279.505 27.3487Z" fill="#059669"/>
<path d="M47.8315 30.3857C41.6487 30.3857 35.8323 27.9733 31.4542 23.5927C23.1424 15.2858 9.61788 15.285 1.3044 23.5935L0 22.2891C9.03222 13.2618 23.7272 13.2618 32.7578 22.2891C36.7885 26.3214 42.1408 28.5409 47.8315 28.5409C53.5214 28.5409 58.8729 26.3206 62.9019 22.2899L64.2063 23.5927C59.8298 27.9724 54.0142 30.3857 47.8315 30.3857Z" fill="#059669"/>
</g>
</g>
<defs>
<clipPath id="clip0_9070_5969">
<rect width="300" height="35.569" fill="white"/>
</clipPath>
</defs>
</svg>
