<svg width="50" height="50" viewBox="0 0 50 50" fill="none" xmlns="http://www.w3.org/2000/svg">
<rect width="50" height="50" rx="8" fill="#10B981"/>
<g clip-path="url(#clip0_13822_15740)">
<path d="M32.9917 30.5007C31.4397 30.5032 29.9025 30.2066 28.469 29.6283C27.0355 29.0499 25.7341 28.2012 24.6401 27.1311C22.9162 25.4614 20.5816 24.5238 18.1479 24.5238C15.7141 24.5238 13.3795 25.4614 11.6556 27.1311L11.4317 27.3487L8.50586 24.4989L8.72974 24.2813C11.2303 21.8573 14.6178 20.4961 18.1494 20.4961C21.6811 20.4961 25.0686 21.8573 27.5691 24.2813C28.2813 24.9754 29.1275 25.5261 30.0591 25.9018C30.9907 26.2775 31.9894 26.471 32.998 26.471C34.0066 26.471 35.0053 26.2775 35.9368 25.9018C36.8684 25.5261 37.7146 24.9754 38.4268 24.2813L38.6507 24.0637L41.5797 26.9075L41.3589 27.1251C40.2635 28.1979 38.9598 29.0487 37.5235 29.6282C36.0872 30.2076 34.5469 30.5042 32.9917 30.5007Z" fill="#030712"/>
</g>
<defs>
<clipPath id="clip0_13822_15740">
<rect width="33.0769" height="10" fill="white" transform="translate(8.5 20.5)"/>
</clipPath>
</defs>
</svg>
