<svg width="51" height="51" viewBox="0 0 51 51" fill="none" xmlns="http://www.w3.org/2000/svg">
<rect x="0.5" y="0.5" width="50" height="50" rx="8" fill="#047857"/>
<g clip-path="url(#clip0_11454_10666)">
<path d="M33.4922 31C31.9401 31.0024 30.403 30.7059 28.9695 30.1275C27.536 29.5492 26.2346 28.7004 25.1406 27.6304C23.4167 25.9606 21.0821 25.0231 18.6483 25.0231C16.2146 25.0231 13.88 25.9606 12.1561 27.6304L11.9322 27.848L9.00635 24.9982L9.23023 24.7806C11.7308 22.3566 15.1183 20.9954 18.6499 20.9954C22.1815 20.9954 25.569 22.3566 28.0696 24.7806C28.7818 25.4747 29.628 26.0253 30.5596 26.4011C31.4911 26.7768 32.4898 26.9702 33.4985 26.9702C34.5071 26.9702 35.5058 26.7768 36.4373 26.4011C37.3689 26.0253 38.2151 25.4747 38.9273 24.7806L39.1512 24.563L42.0802 27.4068L41.8594 27.6243C40.764 28.6972 39.4603 29.548 38.024 30.1274C36.5877 30.7069 35.0473 31.0035 33.4922 31Z" fill="white"/>
</g>
<defs>
<clipPath id="clip0_11454_10666">
<rect width="33.0769" height="10" fill="white" transform="translate(9 21)"/>
</clipPath>
</defs>
</svg>
